<svg width="624" height="32" viewBox="0 0 624 32" fill="none" xmlns="http://www.w3.org/2000/svg">
<g clip-path="url(#clip0_1233_44081)">
<path d="M29.2843 6.21777C30.0342 7.20046 30.6691 8.26807 31.1762 9.39916L16.7947 20.1433L10.7841 16.3248V11.7312L16.7947 15.5495L29.2843 6.21777Z" fill="#21A038"/>
<path d="M4.64983 15.9994C4.64983 15.7935 4.65479 15.5887 4.66471 15.385L1.02222 15.2041C1.00982 15.4681 1.00238 15.7344 1.00238 16.0032C1.00083 18.1039 1.40854 20.1842 2.20211 22.1247C2.99568 24.0652 4.15949 25.8278 5.62679 27.3116L8.2105 24.6943C7.08103 23.5542 6.18502 22.1992 5.57395 20.7071C4.96289 19.2149 4.64883 17.615 4.64983 15.9994Z" fill="url(#paint0_linear_1233_44081)"/>
<path d="M16.7912 3.69501C16.9945 3.69501 17.1966 3.70255 17.3975 3.7126L17.5797 0.0198347C17.3185 0.00727002 17.0556 0.000988429 16.7912 0.000988429C14.7175 -0.00157447 12.6638 0.411016 10.7479 1.21507C8.83198 2.01912 7.09168 3.1988 5.62689 4.68638L8.2106 7.30485C9.33558 6.1598 10.6728 5.25141 12.1453 4.6319C13.6179 4.0124 15.1967 3.694 16.7912 3.69501Z" fill="url(#paint1_linear_1233_44081)"/>
<path d="M16.7911 28.3049C16.5879 28.3049 16.3857 28.3049 16.1837 28.2886L16.0014 31.9801C16.2634 31.9935 16.5266 32.0001 16.7911 32.0001C18.8639 32.0023 20.9167 31.5894 22.8317 30.7852C24.7464 29.9808 26.4856 28.801 27.9492 27.3135L25.3704 24.6963C24.2453 25.8407 22.9083 26.7487 21.436 27.3679C19.9637 27.9872 18.3853 28.3056 16.7911 28.3049Z" fill="url(#paint2_linear_1233_44081)"/>
<path d="M23.6348 5.84262L26.7044 3.54956C23.8988 1.24702 20.3964 -0.00639158 16.7862 2.45105e-05V3.6953C19.2308 3.69223 21.6189 4.44097 23.6348 5.84262Z" fill="url(#paint3_linear_1233_44081)"/>
<path d="M32.5787 15.9991C32.5807 15.0378 32.4978 14.0782 32.3308 13.1318L28.9325 15.6699C28.9325 15.7792 28.9325 15.8886 28.9325 15.9991C28.9334 17.7182 28.5778 19.4185 27.8889 20.9895C27.1999 22.5606 26.1928 23.9673 24.933 25.1185L27.384 27.864C29.0219 26.3655 30.3307 24.535 31.2256 22.491C32.1205 20.4471 32.5814 18.2353 32.5787 15.9991Z" fill="#21A038"/>
<path d="M16.7913 28.3044C15.0947 28.3051 13.417 27.9445 11.8667 27.2463C10.3164 26.548 8.92807 25.5276 7.79162 24.251L5.08392 26.7337C6.56232 28.394 8.36851 29.7205 10.3854 30.6277C12.4022 31.5349 14.5847 32.0022 16.7913 31.9996V28.3044Z" fill="url(#paint4_linear_1233_44081)"/>
<path d="M8.64939 6.88015L6.19958 4.13477C4.56128 5.63293 3.25201 7.46338 2.35668 9.50738C1.46134 11.5514 0.999939 13.7633 1.00239 15.9996H4.64984C4.64909 14.2804 5.00474 12.5803 5.69373 11.0093C6.38272 9.43831 7.38968 8.03155 8.64939 6.88015Z" fill="url(#paint5_linear_1233_44081)"/>
<mask id="mask0_1233_44081" style="mask-type:luminance" maskUnits="userSpaceOnUse" x="41" y="5" width="165" height="22">
<path d="M205.843 5.56738H41.0798V26.7194H205.843V5.56738Z" fill="white"/>
</mask>
<g mask="url(#mask0_1233_44081)">
<path d="M92.1134 9.15006L96.6307 5.81534H81.5119V25.8541H96.6307V22.5194H85.8259V17.3865H95.043V14.0517H85.8259V9.15006H92.1134Z" fill="#21A038"/>
<path d="M71.3389 13.6216H66.0899V9.14858H74.4671L78.9817 5.80371H61.7785V25.8424H70.7837C75.8323 25.8424 78.7299 23.5498 78.7299 19.5511C78.7299 15.7258 76.1055 13.6216 71.3389 13.6216ZM70.5896 22.5067H66.0899V16.9543H70.5896C73.3202 16.9543 74.6005 17.8848 74.6005 19.7304C74.6005 21.5763 73.2383 22.5067 70.5896 22.5067Z" fill="#21A038"/>
<path d="M107.744 5.8125H99.5148V25.8512H103.828V20.1746H107.744C112.995 20.1746 116.243 17.4063 116.243 12.9829C116.243 8.55958 112.995 5.8125 107.744 5.8125ZM107.653 16.8374H103.828V9.14977H107.653C110.415 9.14977 111.939 10.5157 111.939 12.9951C111.939 15.4745 110.415 16.8374 107.653 16.8374Z" fill="#21A038"/>
<path d="M55.3054 21.1224C54.191 21.727 52.9426 22.04 51.6756 22.0326C47.8833 22.0326 45.132 19.3198 45.132 15.5843C45.132 11.8486 47.8833 9.12997 51.6756 9.12997C53.0433 9.10669 54.3823 9.52221 55.4977 10.3159L58.515 8.08934L58.3109 7.94406C56.5507 6.3935 54.1989 5.57227 51.507 5.57227C48.5873 5.57227 45.9397 6.55656 44.0494 8.34728C43.0936 9.26928 42.3377 10.3788 41.8287 11.6066C41.3198 12.8344 41.0686 14.1541 41.0911 15.4835C41.0709 16.8263 41.3209 18.1594 41.8261 19.4033C42.3313 20.6472 43.0814 21.7764 44.0316 22.7233C45.9308 24.5853 48.5724 25.611 51.4715 25.611C54.5007 25.611 57.1483 24.5526 58.941 22.6256L56.2401 20.6094L55.3054 21.1224Z" fill="#21A038"/>
<path d="M133.346 13.6216H128.1V9.14858H139.375V5.80371H123.786V25.8424H132.779C137.828 25.8424 140.725 23.5498 140.725 19.5511C140.737 15.7258 138.113 13.6216 133.346 13.6216ZM132.597 22.5067H128.1V16.9543H132.597C135.328 16.9543 136.608 17.8848 136.608 19.7304C136.608 21.5763 135.258 22.5067 132.597 22.5067Z" fill="#21A038"/>
<path d="M189.767 25.8143H185.394V5.77557H189.767V14.192H192.146L198.575 5.77557H203.531L195.908 15.3083L204.76 25.8143H198.956L192.45 17.9333H189.767V25.8143Z" fill="#21A038"/>
<path d="M156.613 22.0068H147.362L145.794 25.8982H141.141L149.817 5.85938H154.47L163.006 25.8982H158.182L156.613 22.0068ZM155.164 18.376L152.015 10.5933L148.847 18.376H155.164Z" fill="#21A038"/>
<path d="M168.894 5.85938V14.2272H177.942V5.85938H182.451V25.8982H177.942V18.0022H168.894V25.8982H164.383V5.85938H168.894Z" fill="#21A038"/>
</g>
</g>
<path d="M231.994 7.35239C236.21 9.78505 245.713 16.7908 249.994 25.3524" stroke="#C0C0C0" stroke-width="3" stroke-linecap="round"/>
<path d="M250.992 7.35239C246.776 9.78505 237.274 16.7908 232.992 25.3524" stroke="#C0C0C0" stroke-width="3" stroke-linecap="round"/>
<g clip-path="url(#clip1_1233_44081)">
<path d="M298.515 26.5277C297.642 27.0361 296.32 27.377 295.66 27.5475C293.678 28.0559 291.763 28.0559 290.804 28.0559C287.605 28.0559 286.003 27.511 285.203 27.237C282.801 26.4181 281.735 25.4256 281.203 24.9264C279.601 23.4347 279.069 22.0648 278.801 21.3798C278 19.3249 278 17.6506 278 16.8165C278 14.0523 278.545 12.5971 278.819 11.8695C279.638 9.6868 280.643 8.67003 281.148 8.15859C282.658 6.63037 284.101 6.08543 284.822 5.81144C286.987 4.99254 288.78 4.99255 289.678 4.99255C292.406 4.99255 293.824 5.27262 294.534 5.40962C296.661 5.82668 297.897 6.43553 298.515 6.73691V14.5576C297.06 14.0857 295.629 13.8666 294.914 13.757C292.768 13.4282 291.215 13.4282 290.439 13.4282C287.894 13.4282 286.947 13.9488 286.475 14.2106C285.057 14.993 285.057 16.0097 285.057 16.5212C285.057 18.0494 286.077 18.643 286.585 18.9413C288.113 19.8333 290.077 19.8333 291.06 19.8333C293.024 19.8333 294.296 19.6872 294.932 19.6142C296.841 19.395 297.958 19.1301 298.515 18.9962V26.5246V26.5277Z" fill="#F26A31"/>
<path d="M312.625 19.6903C313.715 19.6903 314.361 19.5563 314.68 19.4893C315.645 19.2884 316.129 19.0114 316.373 18.8713C317.1 18.4543 317.393 18.0524 317.536 17.8515C317.971 17.2518 317.971 16.7191 317.971 16.4512C317.971 15.6505 317.679 15.2517 317.536 15.0508C317.1 14.4511 316.613 14.1953 316.373 14.0675C315.645 13.6869 314.991 13.553 314.662 13.4861C313.679 13.2851 312.975 13.2851 312.625 13.2851C311.572 13.2851 310.915 13.4191 310.589 13.4861C309.605 13.687 309.109 13.9518 308.86 14.0858C308.114 14.4846 307.822 14.8742 307.678 15.0691C307.243 15.6505 307.243 16.1833 307.243 16.4512C307.243 17.2518 307.535 17.6506 307.678 17.8515C308.114 18.4512 308.613 18.7191 308.86 18.8531C309.605 19.2519 310.248 19.398 310.57 19.471C311.536 19.6902 312.263 19.6903 312.625 19.6903ZM324.955 16.926C324.955 19.6537 324.361 21.0358 324.063 21.7269C323.171 23.8 322.093 24.7468 321.554 25.2186C319.935 26.6372 318.419 27.1091 317.664 27.3466C315.39 28.0559 313.548 28.0559 312.625 28.0559C309.861 28.0559 308.345 27.5475 307.587 27.2918C305.313 26.5277 304.248 25.5565 303.715 25.0725C302.114 23.6173 301.52 22.2353 301.225 21.5442C300.333 19.4711 300.333 17.7236 300.333 16.853C300.333 14.0888 300.914 12.6215 301.206 11.8878C302.08 9.68681 303.158 8.67003 303.697 8.15859C305.316 6.63037 306.832 6.08543 307.587 5.81144C309.861 4.99254 311.703 4.99255 312.625 4.99255C315.426 4.99255 316.942 5.53746 317.7 5.81144C319.974 6.63035 321.04 7.65932 321.572 8.17684C323.174 9.72333 323.767 11.1907 324.063 11.9243C324.955 14.1253 324.955 15.9915 324.955 16.926Z" fill="#6569B0"/>
<path d="M346.49 20.0529C348.673 20.0529 349.619 19.4837 350.091 19.1975C351.51 18.3421 351.51 17.1792 351.51 16.5977C351.51 14.9599 350.587 14.4028 350.128 14.1258C348.746 13.2886 347.242 13.2886 346.49 13.2886C344.271 13.2886 343.339 13.8092 342.87 14.071C341.47 14.8533 341.47 16.0163 341.47 16.5977C341.47 18.2721 342.429 18.8657 342.907 19.161C344.344 20.0529 345.774 20.0529 346.49 20.0529ZM357.985 16.4151C357.985 19.1793 357.464 20.6344 357.203 21.362C356.42 23.5447 355.44 24.5615 354.947 25.0729C353.473 26.6012 352.055 27.1461 351.345 27.42C349.217 28.239 347.4 28.239 346.49 28.239C342.197 28.239 340.392 26.9299 339.488 26.2754C336.779 24.3119 336.124 21.8856 335.795 20.674H334.486V27.8767H326.775V5.36133H334.486V12.2353H335.868C336.377 10.634 336.983 9.73899 337.287 9.28844C338.197 7.94287 339.08 7.3127 339.525 6.9961C340.852 6.04933 342.003 5.69925 342.581 5.52268C344.31 4.99603 345.762 4.99603 346.49 4.99603C351.909 4.99603 353.933 6.98391 354.947 7.97939C357.985 10.9628 357.985 14.6007 357.985 16.4181V16.4151Z" fill="#00C2F3"/>
<path d="M359.403 21.2553C361.623 21.7637 363.09 21.8733 363.824 21.9281C366.025 22.0925 367.48 22.0925 368.207 22.0925C369.699 22.0925 370.317 22.0194 370.628 21.9829C371.556 21.8733 371.906 21.7272 372.083 21.6541C372.609 21.4349 372.743 21.2431 372.81 21.1457C373.011 20.8535 373.011 20.613 373.011 20.4912C373.011 20.272 372.926 20.1046 372.883 20.0193C372.755 19.7636 372.503 19.6205 372.375 19.5475C371.994 19.3283 371.532 19.2309 371.303 19.1852C370.612 19.0391 369.885 19.0391 369.522 19.0391H363.047V14.6736H369.596C370.177 14.6736 370.53 14.6371 370.704 14.6188C371.23 14.564 371.498 14.4788 371.632 14.4362C372.031 14.3083 372.189 14.1256 372.268 14.0374C372.506 13.7634 372.506 13.4742 372.506 13.3281C372.506 12.8562 372.348 12.6614 372.268 12.564C372.031 12.2717 371.656 12.153 371.468 12.0921C370.905 11.9094 370.262 11.8607 369.94 11.8364C368.974 11.7633 368.006 11.7633 367.519 11.7633C366.719 11.7633 366.015 11.812 365.665 11.8364C364.612 11.9094 363.872 12.0068 363.501 12.0555C362.393 12.2017 361.677 12.3356 361.318 12.4026C360.247 12.6035 359.686 12.771 359.409 12.8562V6.67331C361.157 6.05533 362.597 5.70219 363.318 5.52867C365.483 5.00201 367.471 5.00201 368.466 5.00201C370.685 5.00201 371.994 5.19684 372.649 5.29425C374.612 5.5865 375.608 6.08273 376.104 6.33236C377.596 7.0782 378.177 7.90316 378.47 8.31414C379.343 9.55011 379.343 10.8348 379.343 11.4771C379.343 13.4407 378.762 14.2292 378.47 14.6249C377.596 15.8061 376.676 16.3419 376.214 16.6067C376.905 16.8625 377.377 17.1151 377.614 17.243C378.323 17.6235 378.674 18.0741 378.85 18.2963C379.377 18.9691 379.547 19.648 379.632 19.9889C379.888 21.0087 379.742 22.0012 379.669 22.4974C379.27 25.4077 377.364 26.3514 376.415 26.8263C373.559 28.2449 370.36 28.245 368.758 28.245C365.811 28.245 364.222 27.9649 363.431 27.8279C361.047 27.4108 359.957 26.9724 359.412 26.7563V21.2644L359.403 21.2553Z" fill="#FFC828"/>
<path d="M397.238 15.115L399.746 5.36723H410.258L412.55 27.8826H404.839L403.966 18.1349H403.055L401.128 27.8826H392.434L390.507 18.1349H389.6L388.726 27.8826H381.015L383.307 5.36723H393.819L396.328 15.115H397.238Z" fill="#F26A31"/>
<path d="M415.461 20.135C416.079 20.4272 416.611 20.5094 416.879 20.552C417.68 20.6799 418.067 20.6799 418.261 20.6799C419.099 20.6799 419.388 20.6068 419.534 20.5703L412.188 5.36723H420.554L423.936 14.3874H424.846L428.082 5.36723H436.448L428.228 23.4441C427.102 25.8825 425.851 26.7897 425.227 27.2463C423.354 28.6102 421.245 28.6102 420.188 28.6102C419.717 28.6102 419.29 28.5858 419.08 28.5736C418.444 28.5371 417.997 28.4762 417.771 28.4458C417.099 28.3544 416.688 28.2692 416.481 28.2266C415.863 28.0987 415.595 27.977 415.461 27.9161V20.1319V20.135Z" fill="#6569B0"/>
<path d="M445.066 16.2078H444.122L440.81 27.8826H432.81L438.737 5.36723H450.451L456.378 27.8826H448.375L445.066 16.2078Z" fill="#86C555"/>
<path d="M467.253 21.3709C469.545 21.3709 470.212 21.0208 470.544 20.8443C471.545 20.3176 471.545 19.6144 471.545 19.2613C471.545 18.2079 470.818 17.9035 470.455 17.7513C469.366 17.2977 468.029 17.2977 467.362 17.2977C466.781 17.2977 466.501 17.3099 466.361 17.316C465.944 17.3342 465.627 17.3586 465.469 17.3707V21.2248C466.05 21.2979 466.33 21.3222 466.47 21.3344C466.887 21.3709 467.131 21.3709 467.253 21.3709ZM457.831 5.36723H465.469V10.8226C466.05 10.7495 466.379 10.7495 466.54 10.7495H467.505C469.761 10.7495 471.058 11.0296 471.707 11.1666C473.652 11.5836 474.623 12.2381 475.107 12.5669C476.562 13.5502 477.119 14.6401 477.399 15.185C478.237 16.8228 478.237 18.4454 478.237 19.2582C478.237 23.368 476.443 24.9327 475.545 25.7151C472.854 28.0622 469.387 28.0622 467.652 28.0622C462.522 28.0622 459.396 27.6269 457.831 27.4077V5.36723Z" fill="#FFC828"/>
<path d="M499.479 13.3706H492.715V27.8826H485.04V13.3706H478.602V5.36723H499.479V13.3706Z" fill="#00C2F3"/>
<path d="M507.422 16.5545C507.422 17.1725 507.544 17.55 507.604 17.7357C507.787 18.2989 508.076 18.5912 508.222 18.7373C508.658 19.1726 509.133 19.3431 509.367 19.4283C510.076 19.684 510.78 19.684 511.13 19.684V13.4281C510.076 13.4281 509.602 13.5985 509.367 13.6838C508.658 13.9395 508.366 14.2287 508.222 14.3748C507.787 14.8102 507.665 15.1877 507.604 15.3764C507.422 15.9396 507.422 16.3536 507.422 16.5576V16.5545ZM522.515 16.3354C522.515 15.7904 522.394 15.4373 522.333 15.2638C522.15 14.7371 521.873 14.457 521.733 14.317C521.316 13.8999 520.841 13.7416 520.607 13.6625C519.897 13.425 519.17 13.425 518.807 13.425V19.7175C520.625 19.7175 521.258 19.0995 521.572 18.789C522.518 17.8605 522.518 16.8438 522.518 16.3354H522.515ZM518.768 5.75045C520.841 5.96964 522.101 6.47802 522.731 6.73374C524.622 7.49785 525.605 8.38373 526.095 8.82515C527.569 10.1524 528.15 11.425 528.442 12.0612C529.316 13.97 529.316 15.6687 529.316 16.518C529.316 19.063 528.735 20.3142 528.442 20.9383C527.569 22.8105 526.589 23.6598 526.095 24.083C524.622 25.3555 523.362 25.8304 522.731 26.0648C520.841 26.7741 519.459 26.9203 518.768 26.9933V28.7042H511.13V26.9933C508.947 26.7741 507.675 26.2901 507.038 26.0465C505.13 25.3189 504.183 24.4696 503.711 24.0465C502.292 22.774 501.735 21.5258 501.455 20.8987C500.618 19.0265 500.618 17.3278 500.618 16.4784C500.618 13.9334 501.175 12.6579 501.455 12.0216C502.292 10.1129 503.248 9.23918 503.729 8.80386C505.166 7.49482 506.439 6.98641 507.075 6.73069C508.984 5.96658 510.414 5.82047 511.13 5.7474V4H518.768V5.7474V5.75045Z" fill="#F26A31"/>
<path d="M538.309 5.36377V14.3474H539.03L543.712 5.36377H551.241V27.8791H544.333V18.859H543.582L538.899 27.8791H531.371V5.36377H538.309Z" fill="#6569B0"/>
<path d="M563.908 16.2013H563.059L560.078 27.8791H552.875L558.212 5.36377H568.754L574.091 27.8791H566.888L563.908 16.2013Z" fill="#FFC828"/>
<path d="M583.878 21.3674C585.939 21.3674 586.542 21.0143 586.84 20.8408C587.741 20.3141 587.741 19.6109 587.741 19.2578C587.741 18.2045 587.087 17.9001 586.758 17.7478C585.775 17.2943 584.575 17.2942 583.976 17.2942C583.452 17.2942 583.202 17.3064 583.075 17.3125C582.697 17.3308 582.414 17.3551 582.274 17.3673V21.2213C582.798 21.2944 583.047 21.3187 583.175 21.3309C583.553 21.3674 583.769 21.3674 583.878 21.3674ZM575.4 5.36377H582.274V10.8191C582.798 10.746 583.093 10.746 583.239 10.746H584.107C586.137 10.746 587.303 11.0261 587.888 11.1631C589.638 11.5802 590.512 12.2347 590.947 12.5635C592.256 13.5468 592.758 14.6366 593.008 15.1815C593.76 16.8193 593.76 18.4419 593.76 19.2547C593.76 23.3645 592.147 24.9292 591.337 25.7116C588.914 28.0587 585.793 28.0588 584.234 28.0588C579.619 28.0588 576.803 27.6234 575.397 27.4042V5.36377H575.4Z" fill="#00C2F3"/>
<path d="M609.347 15.1115L611.605 5.36377H621.064L623.128 27.8791H616.187L615.402 18.1314H614.583L612.847 27.8791H605.024L603.288 18.1314H602.473L601.684 27.8791H594.746L596.807 5.36377H606.269L608.528 15.1115H609.347Z" fill="#86C555"/>
</g>
<defs>
<linearGradient id="paint0_linear_1233_44081" x1="6.36446" y1="26.8504" x2="2.28364" y2="15.2102" gradientUnits="userSpaceOnUse">
<stop offset="0.14" stop-color="#F1E813"/>
<stop offset="0.3" stop-color="#E6E418"/>
<stop offset="0.58" stop-color="#C9DA26"/>
<stop offset="0.89" stop-color="#A2CC39"/>
</linearGradient>
<linearGradient id="paint1_linear_1233_44081" x1="6.66832" y1="5.33973" x2="16.9669" y2="1.46719" gradientUnits="userSpaceOnUse">
<stop offset="0.06" stop-color="#0FA7DF"/>
<stop offset="0.54" stop-color="#0098F8"/>
<stop offset="0.92" stop-color="#0290EA"/>
</linearGradient>
<linearGradient id="paint2_linear_1233_44081" x1="15.7608" y1="29.7699" x2="27.3826" y2="27.1792" gradientUnits="userSpaceOnUse">
<stop offset="0.12" stop-color="#A2CC39"/>
<stop offset="0.28" stop-color="#86C239"/>
<stop offset="0.87" stop-color="#219F38"/>
</linearGradient>
<linearGradient id="paint3_linear_1233_44081" x1="16.0275" y1="1.23765" x2="25.9735" y2="4.26621" gradientUnits="userSpaceOnUse">
<stop offset="0.06" stop-color="#0290EA"/>
<stop offset="0.79" stop-color="#0C89CA"/>
</linearGradient>
<linearGradient id="paint4_linear_1233_44081" x1="5.99889" y1="26.284" x2="16.8349" y2="30.2801" gradientUnits="userSpaceOnUse">
<stop offset="0.13" stop-color="#F1E813"/>
<stop offset="0.3" stop-color="#EAE616"/>
<stop offset="0.53" stop-color="#D8DF1F"/>
<stop offset="0.8" stop-color="#BAD52D"/>
<stop offset="0.98" stop-color="#A2CC39"/>
</linearGradient>
<linearGradient id="paint5_linear_1233_44081" x1="2.36119" y1="16.4469" x2="6.79873" y2="5.05654" gradientUnits="userSpaceOnUse">
<stop offset="0.07" stop-color="#A2CC39"/>
<stop offset="0.26" stop-color="#81C45E"/>
<stop offset="0.92" stop-color="#0FA7DF"/>
</linearGradient>
<clipPath id="clip0_1233_44081">
<rect width="206" height="32" fill="white"/>
</clipPath>
<clipPath id="clip1_1233_44081">
<rect width="346" height="24" fill="white" transform="translate(278 4)"/>
</clipPath>
</defs>
</svg>
