<svg width="394" height="25" viewBox="0 0 394 25" fill="none" xmlns="http://www.w3.org/2000/svg">
<path d="M1.99414 3.35239C6.21022 5.78505 15.7127 12.7908 19.9941 21.3524" stroke="#C0C0C0" stroke-width="3" stroke-linecap="round"/>
<path d="M20.9922 3.35239C16.7761 5.78505 7.2736 12.7908 2.99219 21.3524" stroke="#C0C0C0" stroke-width="3" stroke-linecap="round"/>
<path d="M68.5154 22.5277C67.6417 23.0361 66.3205 23.377 65.6599 23.5475C63.6781 24.0559 61.7632 24.0559 60.8043 24.0559C57.6048 24.0559 56.0035 23.511 55.2028 23.237C52.8009 22.4181 51.7354 21.4256 51.2027 20.9264C49.6014 19.4347 49.0687 18.0648 48.8008 17.3798C48.0001 15.3249 48.0001 13.6506 48.0001 12.8165C48.0001 10.0523 48.545 8.59711 48.819 7.86953C49.6379 5.6868 50.6425 4.67003 51.1479 4.15859C52.6578 2.63037 54.1008 2.08543 54.8223 1.81144C56.9868 0.992536 58.7799 0.992554 59.6779 0.992554C62.4056 0.992554 63.8242 1.27262 64.5335 1.40962C66.6614 1.82668 67.8974 2.43553 68.5154 2.73691V10.5576C67.0602 10.0857 65.6294 9.86655 64.914 9.75696C62.7678 9.42818 61.2153 9.42819 60.439 9.42819C57.894 9.42819 56.9472 9.94878 56.4753 10.2106C55.0567 10.993 55.0567 12.0097 55.0567 12.5212C55.0567 14.0494 56.0766 14.643 56.5849 14.9413C58.1132 15.8333 60.0767 15.8333 61.06 15.8333C63.0236 15.8333 64.2961 15.6872 64.9323 15.6142C66.8411 15.395 67.9583 15.1301 68.5154 14.9962V22.5246V22.5277Z" fill="#F26A31"/>
<path d="M82.6254 15.6903C83.7152 15.6903 84.3606 15.5563 84.6803 15.4893C85.6453 15.2884 86.1293 15.0114 86.3729 14.8713C87.1004 14.4543 87.3927 14.0524 87.5358 13.8515C87.9711 13.2518 87.9711 12.7191 87.9711 12.4512C87.9711 11.6505 87.6789 11.2517 87.5358 11.0508C87.1004 10.4511 86.6134 10.1953 86.3729 10.0675C85.6453 9.68695 84.9908 9.55303 84.662 9.48605C83.6787 9.28513 82.9755 9.28512 82.6254 9.28512C81.5721 9.28512 80.9145 9.41908 80.5888 9.48605C79.6055 9.68698 79.1093 9.95182 78.8596 10.0858C78.1138 10.4846 77.8215 10.8742 77.6784 11.0691C77.2431 11.6505 77.2431 12.1833 77.2431 12.4512C77.2431 13.2518 77.5354 13.6506 77.6784 13.8515C78.1138 14.4512 78.613 14.7191 78.8596 14.8531C79.6055 15.2519 80.2478 15.398 80.5705 15.471C81.5355 15.6902 82.2631 15.6903 82.6254 15.6903ZM94.9546 12.926C94.9546 15.6537 94.361 17.0358 94.0627 17.7269C93.1707 19.8 92.093 20.7468 91.5542 21.2186C89.9347 22.6372 88.4186 23.1091 87.6636 23.3466C85.3896 24.0559 83.5478 24.0559 82.6254 24.0559C79.8612 24.0559 78.3451 23.5475 77.5871 23.2918C75.3131 22.5277 74.2476 21.5565 73.7148 21.0725C72.1135 19.6173 71.5199 18.2353 71.2246 17.5442C70.3326 15.4711 70.3326 13.7236 70.3326 12.853C70.3326 10.0888 70.9141 8.62148 71.2063 7.88782C72.08 5.68681 73.1577 4.67003 73.6966 4.15859C75.3161 2.63037 76.8321 2.08543 77.5871 1.81144C79.8612 0.992536 81.703 0.992554 82.6254 0.992554C85.4261 0.992554 86.9421 1.53746 87.7002 1.81144C89.9742 2.63035 91.0397 3.65932 91.5725 4.17684C93.1737 5.72333 93.7674 7.19068 94.0627 7.92435C94.9546 10.1253 94.9546 11.9915 94.9546 12.926Z" fill="#6569B0"/>
<path d="M116.49 16.0529C118.673 16.0529 119.619 15.4837 120.091 15.1975C121.51 14.3421 121.51 13.1792 121.51 12.5977C121.51 10.9599 120.587 10.4028 120.128 10.1258C118.746 9.2886 117.242 9.2886 116.49 9.2886C114.271 9.2886 113.339 9.80915 112.87 10.071C111.47 10.8533 111.47 12.0163 111.47 12.5977C111.47 14.2721 112.429 14.8657 112.907 15.161C114.344 16.0529 115.774 16.0529 116.49 16.0529ZM127.985 12.4151C127.985 15.1793 127.464 16.6344 127.203 17.362C126.42 19.5447 125.44 20.5615 124.947 21.0729C123.473 22.6012 122.055 23.1461 121.345 23.42C119.217 24.239 117.4 24.239 116.49 24.239C112.197 24.239 110.392 22.9299 109.488 22.2754C106.779 20.3119 106.124 17.8856 105.795 16.674H104.486V23.8767H96.7751V1.36133H104.486V8.23526H105.868C106.377 6.63398 106.983 5.73899 107.287 5.28844C108.197 3.94287 109.08 3.3127 109.525 2.9961C110.852 2.04933 112.003 1.69925 112.581 1.52268C114.31 0.996027 115.762 0.996033 116.49 0.996033C121.909 0.996033 123.933 2.98391 124.947 3.97939C127.985 6.96277 127.985 10.6007 127.985 12.4181V12.4151Z" fill="#00C2F3"/>
<path d="M129.403 17.2553C131.623 17.7637 133.09 17.8733 133.824 17.9281C136.025 18.0925 137.48 18.0925 138.207 18.0925C139.699 18.0925 140.317 18.0194 140.628 17.9829C141.556 17.8733 141.906 17.7272 142.083 17.6541C142.609 17.4349 142.743 17.2431 142.81 17.1457C143.011 16.8535 143.011 16.613 143.011 16.4912C143.011 16.272 142.926 16.1046 142.883 16.0193C142.755 15.7636 142.503 15.6205 142.375 15.5475C141.994 15.3283 141.532 15.2309 141.303 15.1852C140.612 15.0391 139.885 15.0391 139.522 15.0391H133.047V10.6736H139.596C140.177 10.6736 140.53 10.6371 140.704 10.6188C141.23 10.564 141.498 10.4788 141.632 10.4362C142.031 10.3083 142.189 10.1256 142.268 10.0374C142.506 9.76338 142.506 9.47419 142.506 9.32807C142.506 8.8562 142.348 8.66137 142.268 8.56395C142.031 8.2717 141.656 8.15296 141.468 8.09208C140.905 7.90942 140.262 7.86072 139.94 7.83637C138.974 7.76331 138.006 7.76331 137.519 7.76331C136.719 7.76331 136.015 7.81202 135.665 7.83637C134.612 7.90943 133.872 8.00684 133.501 8.05555C132.393 8.20167 131.677 8.33562 131.318 8.4026C130.247 8.60352 129.686 8.77095 129.409 8.85619V2.67331C131.157 2.05533 132.597 1.70219 133.318 1.52867C135.483 1.00201 137.471 1.00201 138.466 1.00201C140.685 1.00201 141.994 1.19684 142.649 1.29425C144.612 1.5865 145.608 2.08273 146.104 2.33236C147.596 3.0782 148.177 3.90316 148.47 4.31414C149.343 5.55011 149.343 6.83479 149.343 7.47713C149.343 9.44068 148.762 10.2292 148.47 10.6249C147.596 11.8061 146.676 12.3419 146.214 12.6067C146.905 12.8625 147.377 13.1151 147.614 13.243C148.323 13.6235 148.674 14.0741 148.85 14.2963C149.377 14.9691 149.547 15.648 149.632 15.9889C149.888 17.0087 149.742 18.0012 149.669 18.4974C149.27 21.4077 147.364 22.3514 146.415 22.8263C143.559 24.2449 140.36 24.245 138.758 24.245C135.811 24.245 134.222 23.9649 133.431 23.8279C131.047 23.4108 129.957 22.9724 129.412 22.7563V17.2644L129.403 17.2553Z" fill="#FFC828"/>
<path d="M167.238 11.115L169.746 1.36725H180.258L182.55 23.8826H174.839L173.966 14.1349H173.055L171.128 23.8826H162.434L160.507 14.1349H159.6L158.726 23.8826H151.015L153.307 1.36725H163.819L166.328 11.115H167.238Z" fill="#F26A31"/>
<path d="M185.461 16.135C186.079 16.4272 186.611 16.5094 186.879 16.552C187.68 16.6799 188.067 16.6799 188.261 16.6799C189.099 16.6799 189.388 16.6068 189.534 16.5703L182.188 1.36725H190.554L193.936 10.3874H194.846L198.082 1.36725H206.448L198.228 19.4441C197.102 21.8825 195.851 22.7897 195.227 23.2464C193.354 24.6102 191.245 24.6102 190.188 24.6102C189.717 24.6102 189.29 24.5858 189.08 24.5737C188.444 24.5371 187.997 24.4762 187.771 24.4458C187.099 24.3545 186.688 24.2692 186.481 24.2266C185.863 24.0987 185.595 23.977 185.461 23.9161V16.1319V16.135Z" fill="#6569B0"/>
<path d="M215.066 12.2079H214.122L210.81 23.8826H202.81L208.737 1.36725H220.451L226.378 23.8826H218.375L215.066 12.2079Z" fill="#86C555"/>
<path d="M237.253 17.3709C239.545 17.3709 240.212 17.0208 240.544 16.8443C241.545 16.3176 241.545 15.6144 241.545 15.2613C241.545 14.208 240.818 13.9035 240.455 13.7513C239.366 13.2977 238.029 13.2977 237.362 13.2977C236.781 13.2977 236.501 13.3099 236.361 13.316C235.944 13.3342 235.627 13.3586 235.469 13.3708V17.2248C236.05 17.2979 236.33 17.3222 236.47 17.3344C236.887 17.3709 237.131 17.3709 237.253 17.3709ZM227.831 1.36725H235.469V6.82258C236.05 6.74952 236.379 6.74948 236.54 6.74948H237.505C239.761 6.74948 241.058 7.02959 241.707 7.16658C243.652 7.58365 244.623 8.23816 245.107 8.56694C246.562 9.55023 247.119 10.6401 247.399 11.185C248.237 12.8228 248.237 14.4454 248.237 15.2582C248.237 19.368 246.443 20.9327 245.545 21.7151C242.854 24.0622 239.387 24.0622 237.652 24.0622C232.522 24.0622 229.396 23.6269 227.831 23.4077V1.36725Z" fill="#FFC828"/>
<path d="M269.479 9.37063H262.715V23.8826H255.04V9.37063H248.602V1.36725H269.479V9.37063Z" fill="#00C2F3"/>
<path d="M277.422 12.5545C277.422 13.1725 277.544 13.55 277.604 13.7357C277.787 14.2989 278.076 14.5912 278.222 14.7373C278.658 15.1726 279.133 15.3431 279.367 15.4283C280.076 15.684 280.78 15.684 281.13 15.684V9.42807C280.076 9.42807 279.602 9.59854 279.367 9.68378C278.658 9.9395 278.366 10.2287 278.222 10.3748C277.787 10.8102 277.665 11.1877 277.604 11.3764C277.422 11.9396 277.422 12.3536 277.422 12.5576V12.5545ZM292.515 12.3354C292.515 11.7904 292.394 11.4373 292.333 11.2638C292.15 10.7371 291.873 10.457 291.733 10.317C291.316 9.89995 290.841 9.74164 290.607 9.66249C289.897 9.42503 289.17 9.42502 288.807 9.42502V15.7175C290.625 15.7175 291.258 15.0995 291.572 14.789C292.518 13.8605 292.518 12.8438 292.518 12.3354H292.515ZM288.768 1.75045C290.841 1.96964 292.101 2.47802 292.731 2.73374C294.622 3.49785 295.605 4.38373 296.095 4.82515C297.569 6.15245 298.15 7.42495 298.442 8.0612C299.316 9.96995 299.316 11.6687 299.316 12.518C299.316 15.063 298.735 16.3142 298.442 16.9383C297.569 18.8105 296.589 19.6598 296.095 20.083C294.622 21.3555 293.362 21.8304 292.731 22.0648C290.841 22.7741 289.459 22.9203 288.768 22.9933V24.7042H281.13V22.9933C278.947 22.7741 277.675 22.2901 277.038 22.0465C275.13 21.3189 274.183 20.4696 273.711 20.0465C272.292 18.774 271.735 17.5258 271.455 16.8987C270.618 15.0265 270.618 13.3278 270.618 12.4784C270.618 9.93343 271.175 8.65788 271.455 8.02162C272.292 6.11287 273.248 5.23918 273.729 4.80386C275.166 3.49482 276.439 2.98641 277.075 2.73069C278.984 1.96658 280.414 1.82047 281.13 1.7474V0H288.768V1.7474V1.75045Z" fill="#F26A31"/>
<path d="M308.309 1.36377V10.3474H309.03L313.712 1.36377H321.241V23.8791H314.333V14.859H313.582L308.899 23.8791H301.371V1.36377H308.309Z" fill="#6569B0"/>
<path d="M333.908 12.2013H333.059L330.078 23.8791H322.875L328.212 1.36377H338.754L344.091 23.8791H336.888L333.908 12.2013Z" fill="#FFC828"/>
<path d="M353.878 17.3674C355.939 17.3674 356.542 17.0143 356.84 16.8408C357.741 16.3141 357.741 15.6109 357.741 15.2578C357.741 14.2045 357.087 13.9001 356.758 13.7478C355.775 13.2943 354.575 13.2942 353.976 13.2942C353.452 13.2942 353.202 13.3064 353.075 13.3125C352.697 13.3308 352.414 13.3551 352.274 13.3673V17.2213C352.798 17.2944 353.047 17.3187 353.175 17.3309C353.553 17.3674 353.769 17.3674 353.878 17.3674ZM345.4 1.36377H352.274V6.8191C352.798 6.74604 353.093 6.74604 353.239 6.74604H354.107C356.137 6.74604 357.303 7.02611 357.888 7.16311C359.638 7.58017 360.512 8.23468 360.947 8.56346C362.256 9.54676 362.758 10.6366 363.008 11.1815C363.76 12.8193 363.76 14.4419 363.76 15.2547C363.76 19.3645 362.147 20.9292 361.337 21.7116C358.914 24.0587 355.793 24.0588 354.234 24.0588C349.619 24.0588 346.803 23.6234 345.397 23.4042V1.36377H345.4Z" fill="#00C2F3"/>
<path d="M379.347 11.1115L381.605 1.36377H391.064L393.128 23.8791H386.187L385.402 14.1314H384.583L382.847 23.8791H375.024L373.288 14.1314H372.473L371.684 23.8791H364.746L366.807 1.36377H376.269L378.528 11.1115H379.347Z" fill="#86C555"/>
</svg>
