<svg width="151" height="56" viewBox="0 0 151 56" fill="none" xmlns="http://www.w3.org/2000/svg">
<path d="M1.99413 19.3524C6.21021 21.785 15.7127 28.7908 19.9941 37.3524" stroke="#C0C0C0" stroke-width="3" stroke-linecap="round"/>
<path d="M20.9922 19.3524C16.7761 21.785 7.2736 28.7908 2.99218 37.3524" stroke="#C0C0C0" stroke-width="3" stroke-linecap="round"/>
<path d="M75.9733 19.2575V13.1559C75.5219 13.264 74.6179 13.4803 73.0702 13.6576C72.5547 13.7167 71.5225 13.8348 69.9308 13.8348C69.1349 13.8348 67.5432 13.8348 66.3061 13.1132C65.8937 12.873 65.0676 12.3915 65.0676 11.1531C65.0676 10.7407 65.0676 9.91463 66.2168 9.28096C66.6003 9.06974 67.3659 8.64729 69.4291 8.64729C70.0578 8.64729 71.3151 8.64729 73.0539 8.91258C73.6335 9.00059 74.7927 9.17787 75.972 9.56134V3.22338C75.4704 2.97821 74.4683 2.48661 72.7446 2.14714C72.17 2.03399 71.0209 1.80768 68.8106 1.80768C68.0838 1.80768 66.6292 1.80768 64.8753 2.47027C64.2906 2.69155 63.1214 3.13285 61.898 4.37128C61.4907 4.78367 60.6747 5.6097 60.0121 7.37744C59.7908 7.9671 59.3495 9.14643 59.3495 11.3857C59.3495 12.0633 59.3495 13.4187 59.9983 15.0846C60.2145 15.639 60.647 16.7492 61.9433 17.9587C62.3393 18.3284 63.1025 19.0362 64.7256 19.6623L75.8715 19.309C75.9041 19.2914 75.9406 19.2738 75.972 19.2562L75.9733 19.2575Z" fill="#F26A31"/>
<path d="M93.4872 18.1963C93.9247 17.8129 94.7986 17.0472 95.5202 15.3662C95.7616 14.8067 96.2419 13.6865 96.2419 11.4762C96.2419 10.7193 96.2419 9.20676 95.5202 7.42394C95.2801 6.82924 94.7986 5.64111 93.501 4.3876C93.0685 3.97018 92.2035 3.13535 90.3616 2.4715C89.7481 2.25022 88.5197 1.80891 86.2503 1.80891C85.5035 1.80891 84.0098 1.80891 82.1679 2.4715C81.5543 2.69278 80.326 3.13409 79.0146 4.37251C78.5771 4.7849 77.7033 5.61094 76.9954 7.39376C76.7603 7.98846 76.2888 9.17659 76.2888 11.4171C76.2888 12.1249 76.2888 13.5394 77.0105 15.2191C77.2507 15.7786 77.7322 16.8988 79.0297 18.0781C79.3051 18.3283 79.7577 18.7382 80.5246 19.1632L92.7467 18.7759C92.9881 18.6075 93.2358 18.4164 93.4872 18.1963ZM89.2866 13.0528C89.0905 13.1659 88.697 13.3923 87.9162 13.5544C87.6559 13.6085 87.1354 13.7166 86.2503 13.7166C85.9561 13.7166 85.3664 13.7166 84.5857 13.5394C84.3254 13.4803 83.8049 13.3621 83.2001 13.0377C82.999 12.9296 82.5954 12.7133 82.2421 12.2268C82.1239 12.0646 81.8888 11.7402 81.8888 11.0914C81.8888 10.8752 81.8888 10.4427 82.2421 9.97119C82.3603 9.81403 82.5954 9.49971 83.2001 9.17533C83.4013 9.0672 83.8049 8.85095 84.5995 8.68876C84.8648 8.6347 85.3953 8.52657 86.2503 8.52657C86.5357 8.52657 87.1052 8.52657 87.9011 8.68876C88.1664 8.74283 88.697 8.85095 89.2866 9.16024C89.4828 9.26334 89.8763 9.46953 90.2296 9.9561C90.3478 10.1183 90.5829 10.4427 90.5829 11.0914C90.5829 11.3077 90.5829 11.7402 90.2296 12.2268C90.1114 12.3889 89.8763 12.7133 89.2866 13.0515V13.0528Z" fill="#6569B0"/>
<path d="M121.599 15.072C121.81 14.4823 122.232 13.303 122.232 11.0638C122.232 9.59023 122.232 6.64316 119.771 4.22541C118.951 3.41949 117.31 1.80891 112.919 1.80891C112.329 1.80891 111.15 1.80891 109.75 2.23639C109.284 2.37846 108.351 2.66387 107.275 3.42955C106.916 3.68478 106.198 4.19524 105.462 5.28656C105.216 5.64991 104.725 6.37662 104.312 7.67414H103.192V2.10312H96.9435V18.6414L103.192 18.4428V14.51H104.253C104.48 15.3511 104.905 16.9101 106.398 18.3409L119.929 17.9122C120.357 17.4558 121.041 16.6298 121.6 15.0707L121.599 15.072ZM115.837 13.3181C115.453 13.5494 114.687 14.0108 112.919 14.0108C112.339 14.0108 111.18 14.0108 110.015 13.2892C109.627 13.049 108.851 12.5675 108.851 11.2109C108.851 10.7394 108.851 9.79643 109.987 9.16276C110.365 8.95153 111.122 8.52909 112.92 8.52909C113.528 8.52909 114.747 8.52909 115.867 9.20676C116.24 9.43307 116.987 9.88444 116.987 11.2109C116.987 11.6824 116.987 12.6253 115.838 13.3181H115.837Z" fill="#00C2F3"/>
<path d="M138.557 12.5814C138.415 12.3991 138.13 12.0357 137.555 11.7264C137.364 11.6233 136.98 11.4171 136.42 11.2109C136.793 10.9947 137.54 10.5622 138.248 9.60412C138.484 9.28477 138.956 8.64607 138.956 7.05435C138.956 6.53384 138.956 5.49281 138.248 4.4895C138.013 4.15506 137.54 3.48744 136.332 2.88269C135.929 2.68153 135.123 2.27794 133.532 2.04283C133.001 1.96362 131.94 1.80646 130.142 1.80646C129.336 1.80646 127.726 1.80646 125.972 2.23393C125.387 2.37601 124.218 2.66141 122.803 3.16181V8.17208C123.03 8.10293 123.481 7.96588 124.351 7.80369C124.641 7.74963 125.221 7.6415 126.12 7.52332C126.419 7.48434 127.019 7.40514 127.874 7.34604C128.159 7.32593 128.729 7.28695 129.378 7.28695C129.771 7.28695 130.557 7.28695 131.338 7.34604C131.598 7.36616 132.119 7.40514 132.575 7.55224C132.727 7.60127 133.031 7.69934 133.224 7.93571C133.288 8.01492 133.415 8.17208 133.415 8.55429C133.415 8.67248 133.415 8.90759 133.224 9.12887C133.16 9.20305 133.033 9.35015 132.708 9.45325C132.6 9.48719 132.384 9.55634 131.956 9.60035C131.814 9.61544 131.529 9.64435 131.057 9.64435H125.752V13.1811H130.998C131.294 13.1811 131.882 13.1811 132.443 13.2993C132.63 13.3382 133.004 13.4175 133.313 13.5935C133.416 13.6526 133.622 13.7708 133.725 13.9769C133.759 14.0461 133.828 14.1831 133.828 14.3604C133.828 14.4585 133.828 14.6546 133.666 14.891C133.612 14.9702 133.504 15.1274 133.077 15.3034C132.934 15.3625 132.649 15.4807 131.897 15.5687C131.647 15.5976 131.145 15.6567 129.937 15.6567C129.347 15.6567 128.169 15.6567 126.385 15.5247C125.791 15.4807 124.602 15.3926 122.805 14.979V17.8179L138.853 17.3087C139.02 16.9328 139.15 16.4965 139.222 15.9811C139.281 15.5787 139.399 14.7728 139.192 13.9468C139.123 13.6714 138.986 13.122 138.558 12.5763L138.557 12.5814Z" fill="#FFC828"/>
<path d="M78.9556 20.3438L69.5637 20.6392L68.1781 26.0216H67.4414L66.0835 20.7499L56.591 21.0491L55.1741 34.971L61.3976 35.069L61.9885 28.4683H62.7253L64.0392 35.1105L71.5565 35.2287L72.893 28.4683H73.631L74.2395 35.2715L80.4844 35.3695L78.9556 20.3438Z" fill="#00C2F3"/>
<path d="M82.3565 30.4285C82.1403 30.3945 81.7078 30.3254 81.2074 30.089V35.3809L89.5607 35.5129C90.1039 35.0615 90.8557 34.2757 91.5523 32.772L97.4691 19.7604L90.7715 19.9716L88.8114 25.4333H88.0746L86.0818 20.12L79.6169 20.3237L84.5077 30.4435C84.3895 30.4725 84.1544 30.5316 83.4768 30.5316C83.3196 30.5316 83.0053 30.5316 82.3565 30.4285Z" fill="#FFC828"/>
<path d="M108.548 19.4109L98.2951 19.734L94.1209 35.5845L100.592 35.6864L103.082 26.9055H103.847L106.362 35.7769L112.886 35.88L108.548 19.4109Z" fill="#86C555"/>
<path d="M127.967 34.6139C128.694 33.9802 130.148 32.7129 130.148 29.3824C130.148 28.7235 130.148 27.4072 129.471 26.0807C129.244 25.6382 128.793 24.7543 127.614 23.9584C127.221 23.6932 126.434 23.1626 124.858 22.8231C124.332 22.71 123.281 22.4836 121.453 22.4836H120.672C120.54 22.4836 120.275 22.4836 119.802 22.5427V19.055L113.613 19.2499V35.8913L125.268 36.0749C126.183 35.7983 127.122 35.3494 127.967 34.6126V34.6139ZM123.913 30.6648C123.643 30.8069 123.102 31.0923 121.247 31.0923C121.149 31.0923 120.953 31.0923 120.613 31.0633C120.5 31.0533 120.274 31.0344 119.802 30.9753V27.851C119.93 27.8409 120.186 27.8221 120.524 27.807C120.637 27.802 120.863 27.7919 121.335 27.7919C121.875 27.7919 122.955 27.7919 123.841 28.1603C124.136 28.2835 124.724 28.5287 124.724 29.3836C124.724 29.669 124.724 30.2386 123.913 30.666V30.6648Z" fill="#F26A31"/>
<path d="M129.285 18.757V24.6072H134.501V36.2207L140.721 36.3188V24.6072H146.203V18.2227L129.285 18.757Z" fill="#6569B0"/>
<path d="M53.923 50.8077C54.3065 51.1509 55.0722 51.8387 56.6199 52.4283C57.1354 52.6245 58.1676 53.018 59.9354 53.194V54.1936H66.125V53.194C66.6857 53.1349 67.8047 53.0167 69.3373 52.4422C69.8478 52.2511 70.87 51.8676 72.0631 50.8354C72.4604 50.4921 73.2563 49.8044 73.9641 48.2856C74.1992 47.7802 74.6707 46.768 74.6707 44.7048C74.6707 44.0171 74.6707 42.6416 73.9641 41.0939C73.7278 40.5784 73.2563 39.5462 72.0631 38.4712C71.6658 38.1129 70.87 37.395 69.3373 36.7764C69.0909 36.6771 68.7238 36.53 68.2246 36.3842L58.3487 36.2383C57.8558 36.354 57.2875 36.5212 56.6488 36.7764C56.1333 36.9826 55.1011 37.395 53.9369 38.4562C53.5484 38.8095 52.7726 39.5173 52.095 41.065C51.8686 41.5805 51.4173 42.6127 51.4173 44.6759C51.4173 45.3637 51.4173 46.7391 52.095 48.2567C52.3213 48.7621 52.7726 49.7742 53.923 50.8064V50.8077ZM66.1539 42.2016C66.4493 42.2016 67.0378 42.2016 67.6136 42.3927C67.8047 42.4568 68.1882 42.5838 68.5276 42.9233C68.6408 43.0364 68.8671 43.2627 69.0142 43.689C69.0632 43.831 69.1613 44.1164 69.1613 44.559C69.1613 44.9714 69.1613 45.7974 68.3944 46.548C68.1391 46.7982 67.6287 47.2999 66.1539 47.2999V42.2003V42.2016ZM57.0763 43.7782C57.1253 43.6261 57.2234 43.3218 57.578 42.9673C57.6961 42.8491 57.9313 42.614 58.5058 42.4078C58.6969 42.3386 59.0804 42.2016 59.9354 42.2016V47.271C59.6512 47.271 59.0804 47.271 58.5058 47.0648C58.3147 46.9956 57.9313 46.8586 57.578 46.5053C57.4598 46.3871 57.2247 46.152 57.0763 45.6943C57.0273 45.5422 56.9292 45.2379 56.9292 44.7363C56.9292 44.5691 56.9292 44.2346 57.0763 43.7782Z" fill="#6569B0"/>
<path d="M75.1762 36.4885V53.5247H81.2778L85.071 46.2149H85.6808V53.5247H91.2782V36.7274L84.4763 36.6268L81.3834 42.5612H80.8V36.5728L75.1762 36.4885Z" fill="#F26A31"/>
<path d="M92.0251 53.5247H97.8614L100.275 44.0637H100.966L103.38 53.5247H109.215L105.283 36.9349L95.9905 36.7978L92.0251 53.5247Z" fill="#00C2F3"/>
<path d="M109.89 37.0028V53.1413C111.03 53.3186 113.312 53.6719 117.051 53.6719C118.316 53.6719 120.844 53.6719 122.807 51.7708C123.461 51.1372 124.77 49.8698 124.77 46.5393C124.77 45.8805 124.77 44.5641 124.16 43.2377C123.956 42.7951 123.55 41.9112 122.489 41.1154C122.136 40.8501 121.428 40.3195 120.008 39.9801C119.536 39.8669 118.589 39.6406 116.944 39.6406H116.242C116.122 39.6406 115.883 39.6406 115.459 39.6997V37.0833L109.888 37.0003L109.89 37.0028ZM116.11 44.9627C116.211 44.9576 116.415 44.9476 116.839 44.9476C117.325 44.9476 118.297 44.9476 119.093 45.316C119.358 45.4392 119.889 45.6843 119.889 46.5393C119.889 46.8247 119.889 47.3942 119.16 47.8217C118.917 47.9638 118.43 48.2492 116.76 48.2492C116.672 48.2492 116.494 48.2492 116.189 48.2203C116.087 48.2102 115.883 48.1914 115.459 48.1323V45.0079C115.575 44.9979 115.804 44.979 116.11 44.9639V44.9627Z" fill="#FFC828"/>
<path d="M124.601 53.5247H130.225L130.861 45.6265H131.525L132.931 53.5247H139.271L140.677 45.6265H141.339L141.977 53.5247H147.601L146.136 37.5396L137.767 37.4164L136.432 43.1798H135.77L134.422 37.3661L126.094 37.2429L124.601 53.5247Z" fill="#86C555"/>
</svg>
