<svg width="48" height="49" viewBox="0 0 48 49" fill="none" xmlns="http://www.w3.org/2000/svg">
<path fill-rule="evenodd" clip-rule="evenodd" d="M25.032 4.83917C24.7534 4.57499 24.384 4.42773 24 4.42773C23.616 4.42773 23.2467 4.57499 22.968 4.83917C18.7226 8.87093 13.0683 11.0818 7.21401 10.9992C6.89508 10.995 6.58313 11.0926 6.32346 11.2779C6.06379 11.4631 5.86993 11.7263 5.77001 12.0292C4.92596 14.6015 4.49725 17.2919 4.50001 19.9992C4.50001 31.8832 12.628 41.8652 23.626 44.6952C23.8713 44.7584 24.1287 44.7584 24.374 44.6952C35.372 41.8652 43.5 31.8832 43.5 19.9992C43.5 17.2192 43.054 14.5392 42.23 12.0292C42.1304 11.7259 41.9367 11.4623 41.677 11.2767C41.4173 11.0911 41.1052 10.9932 40.786 10.9972L40.5 10.9992C34.508 10.9992 29.066 8.65917 25.032 4.83917ZM31.22 20.8712C31.34 20.7113 31.4268 20.529 31.4754 20.3351C31.5239 20.1411 31.5332 19.9395 31.5027 19.7419C31.4722 19.5443 31.4025 19.3548 31.2977 19.1846C31.1929 19.0143 31.0552 18.8667 30.8925 18.7505C30.7299 18.6342 30.5456 18.5517 30.3506 18.5076C30.1556 18.4636 29.9538 18.459 29.757 18.4941C29.5602 18.5292 29.3723 18.6033 29.2046 18.712C29.0368 18.8207 28.8925 18.9619 28.78 19.1272L22.308 28.1872L19.06 24.9392C18.7757 24.6742 18.3996 24.53 18.011 24.5368C17.6224 24.5437 17.2516 24.7011 16.9768 24.9759C16.7019 25.2508 16.5445 25.6215 16.5377 26.0101C16.5308 26.3987 16.6751 26.7748 16.94 27.0592L21.44 31.5592C21.594 31.713 21.7796 31.8315 21.984 31.9065C22.1884 31.9814 22.4066 32.0109 22.6235 31.993C22.8405 31.9751 23.0509 31.9103 23.2403 31.8029C23.4296 31.6955 23.5933 31.5482 23.72 31.3712L31.22 20.8712Z" fill="white"/>
</svg>
