<svg width="48" height="49" viewBox="0 0 48 49" fill="none" xmlns="http://www.w3.org/2000/svg">
<path fill-rule="evenodd" clip-rule="evenodd" d="M24.0013 14.0008C24.0009 12.3608 24.3846 10.7435 25.1218 9.27849C25.8589 7.8135 26.929 6.54154 28.2462 5.56456C29.5634 4.58757 31.0912 3.93272 32.7071 3.65248C34.323 3.37224 35.982 3.4744 37.5513 3.95078C37.7993 4.02592 38.0237 4.16404 38.2024 4.35168C38.3812 4.53932 38.5083 4.77008 38.5713 5.02146C38.6344 5.27283 38.6312 5.53626 38.5622 5.78605C38.4931 6.03585 38.3605 6.26349 38.1773 6.44678L31.5373 13.0848C31.6633 14.0348 32.0893 14.9528 32.8193 15.6828C33.5493 16.4128 34.4673 16.8388 35.4193 16.9628L42.0553 10.3248C42.2386 10.1416 42.4662 10.009 42.716 9.93991C42.9658 9.87085 43.2292 9.86769 43.4806 9.93074C43.732 9.99378 43.9628 10.1209 44.1504 10.2997C44.338 10.4784 44.4762 10.7028 44.5513 10.9508C45.0497 12.5925 45.1383 14.3313 44.8092 16.0152C44.4801 17.699 43.7434 19.2766 42.6635 20.6098C41.5837 21.9431 40.1936 22.9914 38.6148 23.6631C37.036 24.3348 35.3167 24.6093 33.6073 24.4628C31.5713 24.2908 29.8673 24.6628 28.9893 25.7308L14.6893 43.1008C14.1038 43.8083 13.377 44.3858 12.5554 44.7962C11.7338 45.2066 10.8356 45.4409 9.91822 45.4841C9.00085 45.5274 8.08457 45.3786 7.22804 45.0472C6.37151 44.7159 5.59361 44.2094 4.94415 43.56C4.29468 42.9107 3.78797 42.1329 3.45646 41.2765C3.12494 40.42 2.97593 39.5037 3.01896 38.5864C3.062 37.669 3.29613 36.7707 3.70636 35.9491C4.1166 35.1274 4.6939 34.4005 5.4013 33.8148L22.7693 19.5128C23.8353 18.6328 24.2093 16.9308 24.0373 14.8948C24.0128 14.5974 24.0008 14.2992 24.0013 14.0008ZM8.2353 38.7508C8.2353 38.353 8.39333 37.9714 8.67464 37.6901C8.95594 37.4088 9.33747 37.2508 9.7353 37.2508H9.7513C10.1491 37.2508 10.5307 37.4088 10.812 37.6901C11.0933 37.9714 11.2513 38.353 11.2513 38.7508V38.7668C11.2513 39.1646 11.0933 39.5461 10.812 39.8274C10.5307 40.1087 10.1491 40.2668 9.7513 40.2668H9.7353C9.33747 40.2668 8.95594 40.1087 8.67464 39.8274C8.39333 39.5461 8.2353 39.1646 8.2353 38.7668V38.7508Z" fill="white"/>
<path d="M20.1515 17.7795L15.7495 13.3795V10.2475C15.7494 9.98854 15.6824 9.73399 15.5548 9.50863C15.4272 9.28327 15.2435 9.09478 15.0215 8.9615L7.52145 4.4615C7.2346 4.28954 6.8985 4.21839 6.56657 4.25933C6.23464 4.30028 5.92592 4.45099 5.68945 4.6875L4.18945 6.1875C3.95294 6.42397 3.80224 6.73269 3.76129 7.06462C3.72034 7.39655 3.7915 7.73265 3.96345 8.0195L8.46345 15.5195C8.59673 15.7415 8.78523 15.9253 9.01058 16.0529C9.23594 16.1804 9.49049 16.2475 9.74945 16.2475H12.8775L17.0015 20.3715L20.1515 17.7775V17.7795Z" fill="white"/>
<path fill-rule="evenodd" clip-rule="evenodd" d="M25.1133 35.1572L33.4793 43.5212C34.1061 44.148 34.8502 44.6452 35.6692 44.9845C36.4881 45.3237 37.3659 45.4983 38.2523 45.4983C39.1387 45.4983 40.0165 45.3237 40.8354 44.9845C41.6544 44.6452 42.3985 44.148 43.0253 43.5212C43.6521 42.8944 44.1493 42.1503 44.4885 41.3314C44.8277 40.5124 45.0023 39.6347 45.0023 38.7482C45.0023 37.8618 44.8277 36.9841 44.4885 36.1651C44.1493 35.3462 43.6521 34.602 43.0253 33.9752L36.4133 27.3652C35.3998 27.5089 34.3733 27.5378 33.3533 27.4512C32.5653 27.3832 31.9893 27.4392 31.6193 27.5352C31.5022 27.56 31.3896 27.6025 31.2853 27.6612L25.1133 35.1572ZM31.9413 32.4372C32.2225 32.1563 32.6038 31.9986 33.0013 31.9986C33.3988 31.9986 33.78 32.1563 34.0613 32.4372L37.8113 36.1892C37.9587 36.3266 38.0769 36.4922 38.1588 36.6762C38.2408 36.8602 38.2849 37.0588 38.2885 37.2602C38.292 37.4616 38.255 37.6617 38.1795 37.8484C38.1041 38.0352 37.9918 38.2049 37.8494 38.3473C37.7069 38.4897 37.5373 38.602 37.3505 38.6775C37.1637 38.7529 36.9636 38.79 36.7622 38.7864C36.5608 38.7829 36.3622 38.7388 36.1782 38.6568C35.9942 38.5748 35.8286 38.4566 35.6913 38.3092L31.9413 34.5592C31.6604 34.278 31.5026 33.8967 31.5026 33.4992C31.5026 33.1017 31.6604 32.7205 31.9413 32.4392V32.4372Z" fill="white"/>
</svg>
